<svg width="51" height="45" viewBox="0 0 51 45" fill="none" xmlns="http://www.w3.org/2000/svg">
<path d="M2.69896 44.625C2.24826 44.625 1.83854 44.5127 1.46979 44.2882C1.10104 44.0637 0.814237 43.7662 0.609376 43.3958C0.404515 43.0254 0.292251 42.6256 0.272585 42.1962C0.252918 41.7668 0.365182 41.3472 0.609376 40.9375L23.349 1.60417C23.5948 1.19444 23.9127 0.887153 24.3028 0.682292C24.6928 0.477431 25.0919 0.375 25.5 0.375C25.9081 0.375 26.308 0.477431 26.6997 0.682292C27.0914 0.887153 27.4085 1.19444 27.651 1.60417L50.3906 40.9375C50.6365 41.3472 50.7495 41.7676 50.7299 42.1986C50.7102 42.6297 50.5971 43.0287 50.3906 43.3958C50.1841 43.7629 49.8973 44.0604 49.5302 44.2882C49.1631 44.516 48.7534 44.6283 48.301 44.625H2.69896ZM6.93958 39.7083H44.0604L25.5 7.75L6.93958 39.7083ZM25.5 37.25C26.1965 37.25 26.7808 37.014 27.2528 36.542C27.7248 36.07 27.96 35.4866 27.9583 34.7917C27.9567 34.0968 27.7207 33.5133 27.2503 33.0413C26.78 32.5693 26.1965 32.3333 25.5 32.3333C24.8035 32.3333 24.22 32.5693 23.7497 33.0413C23.2793 33.5133 23.0433 34.0968 23.0417 34.7917C23.04 35.4866 23.276 36.0708 23.7497 36.5445C24.2233 37.0181 24.8068 37.2533 25.5 37.25ZM25.5 29.875C26.1965 29.875 26.7808 29.639 27.2528 29.167C27.7248 28.695 27.96 28.1116 27.9583 27.4167V20.0417C27.9583 19.3451 27.7223 18.7617 27.2503 18.2913C26.7783 17.821 26.1949 17.585 25.5 17.5833C24.8051 17.5817 24.2217 17.8177 23.7497 18.2913C23.2777 18.765 23.0417 19.3484 23.0417 20.0417V27.4167C23.0417 28.1132 23.2777 28.6975 23.7497 29.1695C24.2217 29.6415 24.8051 29.8766 25.5 29.875Z" fill="#FFD500"/>
</svg>
