<svg width="23" height="34" viewBox="0 0 23 34" fill="none" xmlns="http://www.w3.org/2000/svg">
<path d="M11.5 4.07422C6.62631 4.07422 3.25 7.55984 3.25 11.8086C3.25 13.8381 4.1245 15.1602 5.2795 16.5606L5.72087 17.0824C6.18081 17.6269 6.69025 18.2292 7.10894 18.8314C7.69469 19.6791 8.2165 20.6794 8.38975 21.9045C8.43104 22.3025 8.31651 22.701 8.07022 23.0163C7.82392 23.3317 7.46502 23.5393 7.06888 23.5956C6.67275 23.652 6.2702 23.5526 5.94577 23.3184C5.62134 23.0842 5.40028 22.7334 5.329 22.3397C5.2465 21.7581 4.99281 21.2115 4.56588 20.5928C4.21607 20.1075 3.84301 19.6395 3.448 19.1903L2.89525 18.5303C1.60206 16.9648 0.15625 14.9353 0.15625 11.8086C0.15625 5.74484 5.02994 0.980469 11.5 0.980469C17.9701 0.980469 22.8438 5.74484 22.8438 11.8086C22.8438 14.9353 21.3979 16.9648 20.1047 18.5303C19.9095 18.7668 19.7253 18.9861 19.552 19.1882C19.1251 19.6935 18.7621 20.1225 18.4362 20.5928C18.0072 21.2115 17.7556 21.7581 17.6731 22.3397C17.597 22.7295 17.3741 23.0752 17.0505 23.3054C16.7268 23.5356 16.3271 23.6326 15.9339 23.5765C15.5407 23.5204 15.1841 23.3154 14.9378 23.0038C14.6914 22.6923 14.5742 22.298 14.6103 21.9025C14.7835 20.6794 15.3053 19.6791 15.8911 18.8314C16.3097 18.2292 16.8192 17.6269 17.2791 17.0824L17.7184 16.5606C18.8755 15.1602 19.75 13.8381 19.75 11.8086C19.75 7.55984 16.3737 4.07422 11.5 4.07422ZM6.85938 25.7305H16.1406C16.5509 25.7305 16.9443 25.8934 17.2344 26.1835C17.5245 26.4736 17.6875 26.8671 17.6875 27.2773C17.6875 27.6876 17.5245 28.0811 17.2344 28.3711C16.9443 28.6612 16.5509 28.8242 16.1406 28.8242H6.85938C6.44912 28.8242 6.05566 28.6612 5.76557 28.3711C5.47547 28.0811 5.3125 27.6876 5.3125 27.2773C5.3125 26.8671 5.47547 26.4736 5.76557 26.1835C6.05566 25.8934 6.44912 25.7305 6.85938 25.7305ZM7.375 32.4336C7.375 32.0233 7.53797 31.6299 7.82807 31.3398C8.11816 31.0497 8.51162 30.8867 8.92188 30.8867H14.0781C14.4884 30.8867 14.8818 31.0497 15.1719 31.3398C15.462 31.6299 15.625 32.0233 15.625 32.4336C15.625 32.8439 15.462 33.2373 15.1719 33.5274C14.8818 33.8175 14.4884 33.9805 14.0781 33.9805H8.92188C8.51162 33.9805 8.11816 33.8175 7.82807 33.5274C7.53797 33.2373 7.375 32.8439 7.375 32.4336Z" fill="#00FFE5"/>
</svg>
