<svg width="63" height="63" viewBox="0 0 63 63" fill="none" xmlns="http://www.w3.org/2000/svg">
<path fill-rule="evenodd" clip-rule="evenodd" d="M15.75 36.75C18.6494 36.75 21 39.1005 21 42C21 44.8995 18.6494 47.25 15.75 47.25C12.8505 47.25 10.5 44.8995 10.5 42C10.5 39.1005 12.8505 36.75 15.75 36.75ZM45.9375 36.75C48.837 36.75 51.1875 39.1005 51.1875 42C51.1875 44.8995 48.837 47.25 45.9375 47.25C43.0381 47.25 40.6875 44.8995 40.6875 42C40.6875 39.1005 43.0381 36.75 45.9375 36.75ZM34.9999 18.375L35.7 18.9L45.7722 26.4548L53.7733 28.4562C55.973 29.0063 57.5546 30.8987 57.7332 33.1278L57.75 33.5495V42.7371L55.7616 43.2342L53.6125 43.7715C53.7458 43.1904 53.8129 42.5962 53.8125 42C53.8125 37.6508 50.2868 34.125 45.9375 34.125C41.5883 34.125 38.0625 37.6508 38.0625 42C38.0625 42.9204 38.2204 43.804 38.5107 44.6251H23.1768C23.4744 43.7819 23.6259 42.8941 23.625 42C23.625 37.6508 20.0993 34.125 15.75 34.125C11.4007 34.125 7.87496 37.6508 7.87496 42C7.87496 42.3992 7.90474 42.7913 7.96195 43.1745L5.25 40.4623V27.9247L5.85847 27.1945L12.4209 19.3195L13.2081 18.375H34.9999ZM33.2509 23.625H15.666L11.2917 28.875H36.75L38.2502 27.3748L33.2509 23.625Z" fill="#920DBA"/>
</svg>
