<svg width="19" height="34" viewBox="0 0 19 34" fill="none" xmlns="http://www.w3.org/2000/svg">
<path d="M3.10601 20.8H8.5V31.1917V31.2237C8.49998 31.6484 8.49997 32.0088 8.52745 32.2668C8.54126 32.3966 8.56605 32.5481 8.62607 32.6835C8.6908 32.8294 8.82943 33.0221 9.09122 33.0788C9.35302 33.1356 9.55897 33.0175 9.6783 32.9114C9.78894 32.813 9.87423 32.6853 9.94049 32.5729C10.0723 32.3494 10.2214 32.0213 10.3971 31.6346L10.4104 31.6055L17.1699 16.7345L17.1867 16.6975C17.4619 16.0923 17.6916 15.5869 17.8097 15.1754C17.9326 14.7471 17.9718 14.2974 17.7082 13.8879C17.4445 13.4784 17.0188 13.3281 16.5781 13.2627C16.1546 13.2 15.5995 13.2 14.9346 13.2L14.894 13.2H9.5V2.8083V2.77634C9.50002 2.35161 9.50003 1.99117 9.47255 1.73317C9.45874 1.60344 9.43395 1.45188 9.37393 1.31654C9.3092 1.17057 9.17057 0.977858 8.90878 0.921151L8.80293 1.40982L8.90877 0.921151C8.64698 0.864444 8.44103 0.982518 8.3217 1.08862C8.21106 1.18699 8.12577 1.31471 8.05951 1.42709C7.92773 1.6506 7.77859 1.97875 7.60285 2.36542L7.58963 2.3945L0.830091 17.2655L0.813279 17.3025C0.538139 17.9077 0.308387 18.4131 0.190318 18.8246C0.0674251 19.2529 0.0281768 19.7026 0.291843 20.1121C0.555509 20.5216 0.981167 20.6719 1.42191 20.7373C1.84536 20.8 2.40055 20.8 3.06541 20.8H3.10601Z" fill="#920DBA" stroke="#920DBA"/>
</svg>
