<svg width="92" height="92" viewBox="0 0 92 92" fill="none" xmlns="http://www.w3.org/2000/svg">
<path d="M28.6295 28.6286L28.6939 26.6296L26.5617 26.5609L26.6305 28.6931L28.6295 28.6286ZM38.667 41.4946C39.4481 42.2756 40.7144 42.2756 41.4954 41.4946C42.2765 40.7135 42.2765 39.4472 41.4954 38.6662L38.667 41.4946ZM40.5274 27.0114L28.6939 26.6296L28.565 30.6276L40.3985 31.0093L40.5274 27.0114ZM26.6305 28.6931L27.0122 40.5266L31.0101 40.3976L30.6284 28.5641L26.6305 28.6931ZM27.2152 30.0428L38.667 41.4946L41.4954 38.6662L30.0437 27.2144L27.2152 30.0428Z" fill="#FF4700"/>
<path d="M62.9848 28.6292L64.9837 28.6937L65.0525 26.5615L62.9203 26.6302L62.9848 28.6292ZM50.1188 38.6668C49.3377 39.4478 49.3377 40.7142 50.1188 41.4952C50.8998 42.2762 52.1662 42.2762 52.9472 41.4952L50.1188 38.6668ZM64.602 40.5272L64.9837 28.6937L60.9858 28.5647L60.6041 40.3982L64.602 40.5272ZM62.9203 26.6302L51.0868 27.012L51.2158 31.0099L63.0493 30.6282L62.9203 26.6302ZM61.5706 27.215L50.1188 38.6668L52.9472 41.4952L64.399 30.0434L61.5706 27.215Z" fill="#FF4700"/>
<path d="M62.9848 62.9841L64.9837 62.9196L65.0525 65.0518L62.9203 64.983L62.9848 62.9841ZM50.1188 52.9465C49.3377 52.1655 49.3377 50.8991 50.1188 50.1181C50.8998 49.337 52.1662 49.337 52.9472 50.1181L50.1188 52.9465ZM64.602 51.0861L64.9837 62.9196L60.9858 63.0486L60.6041 51.2151L64.602 51.0861ZM62.9203 64.983L51.0868 64.6013L51.2158 60.6034L63.0493 60.9851L62.9203 64.983ZM61.5706 64.3983L50.1188 52.9465L52.9472 50.1181L64.399 61.5699L61.5706 64.3983Z" fill="#FF4700"/>
<path d="M28.6295 62.9847L28.6939 64.9836L26.5617 65.0524L26.6305 62.9202L28.6295 62.9847ZM38.667 50.1187C39.4481 49.3376 40.7144 49.3376 41.4954 50.1187C42.2765 50.8997 42.2765 52.1661 41.4954 52.9471L38.667 50.1187ZM40.5274 64.6019L28.6939 64.9836L28.565 60.9857L40.3985 60.604L40.5274 64.6019ZM26.6305 62.9202L27.0122 51.0867L31.0101 51.2157L30.6284 63.0492L26.6305 62.9202ZM27.2152 61.5705L38.667 50.1187L41.4954 52.9471L30.0437 64.3989L27.2152 61.5705Z" fill="#FF4700"/>
</svg>
