<svg width="58" height="57" viewBox="0 0 58 57" fill="none" xmlns="http://www.w3.org/2000/svg">
<path d="M28.8333 21.375C26.9436 21.375 25.1314 22.1257 23.7952 23.4619C22.459 24.7981 21.7083 26.6103 21.7083 28.5C21.7083 30.3897 22.459 32.2019 23.7952 33.5381C25.1314 34.8743 26.9436 35.625 28.8333 35.625C30.723 35.625 32.5353 34.8743 33.8715 33.5381C35.2076 32.2019 35.9583 30.3897 35.9583 28.5C35.9583 26.6103 35.2076 24.7981 33.8715 23.4619C32.5353 22.1257 30.723 21.375 28.8333 21.375ZM28.8333 40.375C25.6839 40.375 22.6634 39.1239 20.4364 36.8969C18.2094 34.6699 16.9583 31.6494 16.9583 28.5C16.9583 25.3506 18.2094 22.3301 20.4364 20.1031C22.6634 17.8761 25.6839 16.625 28.8333 16.625C31.9828 16.625 35.0032 17.8761 37.2302 20.1031C39.4572 22.3301 40.7083 25.3506 40.7083 28.5C40.7083 31.6494 39.4572 34.6699 37.2302 36.8969C35.0032 39.1239 31.9828 40.375 28.8333 40.375ZM28.8333 10.6875C16.9583 10.6875 6.81706 18.0738 2.70831 28.5C6.81706 38.9263 16.9583 46.3125 28.8333 46.3125C40.7083 46.3125 50.8496 38.9263 54.9583 28.5C50.8496 18.0738 40.7083 10.6875 28.8333 10.6875Z" fill="#920DBA"/>
</svg>
