<svg width="38" height="38" viewBox="0 0 38 38" fill="none" xmlns="http://www.w3.org/2000/svg">
<path d="M12.35 3.1665H25.65C30.7166 3.1665 34.8333 7.28317 34.8333 12.3498V25.6498C34.8333 28.0854 33.8658 30.4212 32.1436 32.1434C30.4213 33.8656 28.0855 34.8332 25.65 34.8332H12.35C7.28329 34.8332 3.16663 30.7165 3.16663 25.6498V12.3498C3.16663 9.91427 4.13415 7.57845 5.85636 5.85624C7.57857 4.13403 9.91439 3.1665 12.35 3.1665ZM12.0333 6.33317C10.5216 6.33317 9.07174 6.9337 8.00278 8.00266C6.93383 9.07162 6.33329 10.5214 6.33329 12.0332V25.9665C6.33329 29.1173 8.88246 31.6665 12.0333 31.6665H25.9666C27.4784 31.6665 28.9282 31.066 29.9971 29.997C31.0661 28.9281 31.6666 27.4782 31.6666 25.9665V12.0332C31.6666 8.88234 29.1175 6.33317 25.9666 6.33317H12.0333ZM27.3125 8.70817C27.8374 8.70817 28.3408 8.91669 28.7119 9.28785C29.0831 9.65902 29.2916 10.1624 29.2916 10.6873C29.2916 11.2122 29.0831 11.7157 28.7119 12.0868C28.3408 12.458 27.8374 12.6665 27.3125 12.6665C26.7875 12.6665 26.2841 12.458 25.913 12.0868C25.5418 11.7157 25.3333 11.2122 25.3333 10.6873C25.3333 10.1624 25.5418 9.65902 25.913 9.28785C26.2841 8.91669 26.7875 8.70817 27.3125 8.70817ZM19 11.0832C21.0996 11.0832 23.1132 11.9172 24.5979 13.4019C26.0826 14.8866 26.9166 16.9002 26.9166 18.9998C26.9166 21.0995 26.0826 23.1131 24.5979 24.5978C23.1132 26.0824 21.0996 26.9165 19 26.9165C16.9003 26.9165 14.8867 26.0824 13.402 24.5978C11.9174 23.1131 11.0833 21.0995 11.0833 18.9998C11.0833 16.9002 11.9174 14.8866 13.402 13.4019C14.8867 11.9172 16.9003 11.0832 19 11.0832ZM19 14.2498C17.7402 14.2498 16.532 14.7503 15.6412 15.6411C14.7504 16.5319 14.25 17.7401 14.25 18.9998C14.25 20.2596 14.7504 21.4678 15.6412 22.3586C16.532 23.2494 17.7402 23.7498 19 23.7498C20.2597 23.7498 21.4679 23.2494 22.3587 22.3586C23.2495 21.4678 23.75 20.2596 23.75 18.9998C23.75 17.7401 23.2495 16.5319 22.3587 15.6411C21.4679 14.7503 20.2597 14.2498 19 14.2498Z" fill="white"/>
</svg>
