<svg width="34" height="35" viewBox="0 0 34 35" fill="none" xmlns="http://www.w3.org/2000/svg">
<path d="M8.49996 11.8136H21.25V8.98031C21.25 7.79975 20.8368 6.79628 20.0104 5.96989C19.184 5.1435 18.1805 4.73031 17 4.73031C15.8194 4.73031 14.8159 5.1435 13.9895 5.96989C13.1632 6.79628 12.75 7.79975 12.75 8.98031H9.91663C9.91663 7.02059 10.6075 5.35034 11.9892 3.96956C13.3709 2.58878 15.0412 1.89792 17 1.89697C18.9587 1.89603 20.6295 2.58689 22.0121 3.96956C23.3948 5.35222 24.0852 7.02247 24.0833 8.98031V11.8136H25.5C26.2791 11.8136 28.3333 11.8136 28.3333 11.8136C28.3333 11.8136 28.3342 13.8688 28.3333 14.647V28.8136C28.3333 29.5928 28.3333 31.647 28.3333 31.647C28.8055 31.647 26.2801 31.6479 25.5 31.647H8.49996C7.72079 31.647 5.66663 31.647 5.66663 31.647C5.66663 31.647 5.66757 29.5938 5.66663 28.8136V14.647C5.66663 13.8678 5.66663 11.8136 5.66663 11.8136C5.66663 11.8136 7.72174 11.8146 8.49996 11.8136ZM8.49996 28.8136H25.5V14.647H8.49996V28.8136ZM17 24.5636C17.7791 24.5636 18.4464 24.2864 19.0017 23.7321C19.557 23.1777 19.8342 22.5104 19.8333 21.7303C19.8324 20.9502 19.5552 20.2834 19.0017 19.73C18.4483 19.1765 17.781 18.8989 17 18.897C16.2189 18.8951 15.5521 19.1728 14.9996 19.73C14.4471 20.2872 14.1695 20.954 14.1666 21.7303C14.1638 22.5066 14.4415 23.1739 14.9996 23.7321C15.5578 24.2902 16.2246 24.5674 17 24.5636Z" fill="#00FFE5"/>
</svg>
