<svg width="57" height="54" viewBox="0 0 57 54" fill="none" xmlns="http://www.w3.org/2000/svg">
<path d="M57 0V36.9792C57 39.7253 55.9091 42.3589 53.9674 44.3007C52.0256 46.2425 49.3919 47.3333 46.6459 47.3333C43.8998 47.3333 41.2661 46.2425 39.3244 44.3007C37.3826 42.3589 36.2917 39.7253 36.2917 36.9792C36.2917 34.2331 37.3826 31.5994 39.3244 29.6577C41.2661 27.7159 43.8998 26.625 46.6459 26.625C48.2434 26.625 49.7521 26.98 51.0834 27.6308V10.2654L21.5 16.5667V42.8958C21.5 45.6419 20.4091 48.2756 18.4674 50.2173C16.5256 52.1591 13.8919 53.25 11.1459 53.25C8.39976 53.25 5.76613 52.1591 3.82435 50.2173C1.88257 48.2756 0.791687 45.6419 0.791687 42.8958C0.791687 40.1497 1.88257 37.5161 3.82435 35.5743C5.76613 33.6325 8.39976 32.5417 11.1459 32.5417C12.7434 32.5417 14.2521 32.8967 15.5834 33.5475V8.875L57 0Z" fill="white"/>
</svg>
