<svg width="53" height="53" viewBox="0 0 53 53" fill="none" xmlns="http://www.w3.org/2000/svg">
<path d="M34.6297 4.8335C34.6297 5.7305 35.3577 6.4585 36.2547 6.4585H43.9096L27.7917 22.5785V17.8335C27.7917 17.4025 27.6205 16.9892 27.3158 16.6844C27.011 16.3797 26.5977 16.2085 26.1667 16.2085C25.7358 16.2085 25.3224 16.3797 25.0177 16.6844C24.713 16.9892 24.5417 17.4025 24.5417 17.8335V26.5002C24.5417 27.3972 25.2697 28.1252 26.1667 28.1252H34.8334C35.2644 28.1252 35.6777 27.954 35.9825 27.6492C36.2872 27.3445 36.4584 26.9311 36.4584 26.5002C36.4584 26.0692 36.2872 25.6559 35.9825 25.3511C35.6777 25.0464 35.2644 24.8752 34.8334 24.8752H30.0884L46.2084 8.75516V16.4122C46.2084 16.8431 46.3796 17.2565 46.6844 17.5612C46.9891 17.866 47.4024 18.0372 47.8334 18.0372C48.2644 18.0372 48.6777 17.866 48.9825 17.5612C49.2872 17.2565 49.4584 16.8431 49.4584 16.4122V4.8335C49.4584 4.40252 49.2872 3.98919 48.9825 3.68445C48.6777 3.3797 48.2644 3.2085 47.8334 3.2085H36.2547C35.8238 3.2085 35.4104 3.3797 35.1057 3.68445C34.801 3.98919 34.6297 4.40252 34.6297 4.8335Z" fill="#920DBA"/>
<path d="M42.9628 16.5985C43.0108 17.8544 43.542 19.0432 44.4455 19.9168C45.349 20.7904 46.555 21.2814 47.8118 21.2872C47.8334 22.8602 47.8334 24.5913 47.8334 26.5002C47.8334 36.7138 47.8334 41.8207 44.6593 44.9927C41.4894 48.1668 36.3804 48.1668 26.1668 48.1668C15.9531 48.1668 10.8463 48.1668 7.67209 44.9927C4.50009 41.8228 4.50009 36.7138 4.50009 26.5002C4.50009 16.2865 4.50009 11.1797 7.67209 8.0055C10.8484 4.8335 15.9531 4.8335 26.1668 4.8335C28.0756 4.8335 29.8068 4.8335 31.3798 4.85516C31.3855 6.11195 31.8765 7.31794 32.7501 8.22144C33.6237 9.12494 34.8125 9.65614 36.0684 9.70416L30.3853 15.3873C29.8476 14.459 29.0187 13.7339 28.027 13.3245C27.0354 12.9152 25.9364 12.8443 24.9004 13.123C23.8644 13.4017 22.9493 14.0143 22.2968 14.866C21.6444 15.7176 21.2911 16.7607 21.2918 17.8335V26.5002C21.2918 27.7931 21.8054 29.0331 22.7196 29.9473C23.6339 30.8615 24.8738 31.3752 26.1668 31.3752H34.8334C35.9062 31.3758 36.9493 31.0225 37.8009 30.3701C38.6526 29.7177 39.2652 28.8025 39.5439 27.7665C39.8226 26.7305 39.7517 25.6315 39.3424 24.6399C38.933 23.6483 38.2079 22.8194 37.2796 22.2817L42.9628 16.5985Z" fill="#920DBA"/>
</svg>
