<svg width="42" height="42" viewBox="0 0 42 42" fill="none" xmlns="http://www.w3.org/2000/svg">
<path d="M41.1936 16.5432C42.3847 23.5864 38.6556 30.3179 31.9102 33.6164C32.9766 36.4137 30.893 39.375 27.9464 39.375C26.8607 39.3741 25.8167 38.9568 25.0296 38.2089C24.2425 37.4611 23.7724 36.4397 23.7161 35.3555C23.1878 35.3711 18.4496 35.3555 17.4546 35.303C17.4321 35.8597 17.3001 36.4065 17.0662 36.9121C16.8323 37.4178 16.501 37.8724 16.0913 38.25C15.6816 38.6275 15.2015 38.9206 14.6784 39.1126C14.1554 39.3045 13.5996 39.3914 13.043 39.3684C10.2654 39.2569 8.28926 36.5105 9.1875 33.7969C6.13512 32.7214 3.23695 30.9364 1.01555 27.9891C-0.0508606 26.5716 0.976171 24.5602 2.72508 24.5602C6.52394 24.5602 5.36812 20.1165 6.26473 15.5154C7.77656 7.80937 15.8419 2.625 23.6324 2.625C32.0389 2.625 39.8048 8.42215 41.1936 16.5432ZM30.6395 31.8511C34.0848 30.2777 37.3111 27.1991 38.5383 23.4724C41.8589 13.3752 33.276 4.7693 23.6324 4.7693C16.7869 4.7693 9.66082 9.31547 8.36883 15.9255C7.58707 19.9377 8.77898 26.7004 2.72918 26.7004C4.77504 29.4164 7.51406 31.0168 10.418 31.9545C12.4409 30.1662 15.6573 30.6854 16.9665 33.1308C18.133 33.2128 23.4626 33.2276 24.1771 33.198C24.4656 32.6345 24.8766 32.1427 25.38 31.7588C25.8834 31.3749 26.4664 31.1085 27.0862 30.9793C27.706 30.8502 28.3468 30.8614 28.9617 31.0123C29.5766 31.1631 30.1499 31.4497 30.6395 31.8511ZM16.8263 15.3505C16.8263 12.5007 20.9967 12.4999 20.9967 15.3505C20.9967 18.2011 16.8263 18.2003 16.8263 15.3505ZM26.3886 15.3505C26.3886 12.5007 30.5607 12.4999 30.5607 15.3505C30.5607 18.2011 26.3886 18.2011 26.3886 15.3505ZM16.3308 21.1493C16.0486 19.7597 18.1502 19.3298 18.4324 20.7219L18.4373 20.7449C18.777 22.502 20.886 24.3543 23.6972 24.278C26.6241 24.2009 28.5575 22.4561 28.9562 20.7695C29.3221 19.4529 31.3023 19.9196 31.0455 21.2617C30.6165 23.0811 28.4854 26.3476 23.543 26.4214C20.0525 26.4214 16.9083 24.1377 16.3324 21.1509L16.3308 21.1493Z" fill="white"/>
</svg>
